<svg width="32" height="25" viewBox="0 0 32 25" fill="none" xmlns="http://www.w3.org/2000/svg">
<g clip-path="url(#clip0_7_57)">
<path d="M27.0894 2.20746C25.0498 1.27162 22.8626 0.582132 20.5759 0.187234C20.5342 0.179613 20.4926 0.198659 20.4712 0.236752C20.1899 0.737039 19.8783 1.3897 19.6601 1.9027C17.2005 1.53447 14.7536 1.53447 12.3444 1.9027C12.1262 1.3783 11.8033 0.737039 11.5208 0.236752C11.4993 0.19993 11.4577 0.180884 11.4161 0.187234C9.13055 0.58087 6.94341 1.27036 4.90258 2.20746C4.88491 2.21508 4.86977 2.22779 4.85972 2.24428C0.711189 8.4421 -0.425267 14.4876 0.13224 20.4581C0.134763 20.4873 0.15116 20.5152 0.173864 20.533C2.91095 22.5431 5.56228 23.7633 8.16437 24.5722C8.20602 24.5849 8.25014 24.5696 8.27664 24.5354C8.89217 23.6948 9.44086 22.8085 9.9113 21.8764C9.93906 21.8218 9.91256 21.7571 9.85582 21.7355C8.98551 21.4053 8.1568 21.0028 7.35964 20.5457C7.29659 20.5089 7.29154 20.4187 7.34954 20.3755C7.5173 20.2498 7.68509 20.119 7.84527 19.987C7.87425 19.9629 7.91464 19.9578 7.94871 19.973C13.1857 22.364 18.8554 22.364 24.0306 19.973C24.0647 19.9565 24.1051 19.9616 24.1353 19.9857C24.2955 20.1178 24.4633 20.2498 24.6323 20.3755C24.6903 20.4187 24.6865 20.5089 24.6235 20.5457C23.8263 21.0117 22.9976 21.4053 22.126 21.7342C22.0693 21.7558 22.044 21.8218 22.0718 21.8764C22.5523 22.8072 23.101 23.6935 23.7052 24.5341C23.7304 24.5696 23.7758 24.5849 23.8175 24.5722C26.4322 23.7633 29.0835 22.5431 31.8206 20.533C31.8446 20.5152 31.8597 20.4886 31.8622 20.4594C32.5294 13.5568 30.7447 7.56088 27.131 2.24555C27.1221 2.22779 27.107 2.21508 27.0894 2.20746ZM10.6934 16.8227C9.11666 16.8227 7.81751 15.3751 7.81751 13.5974C7.81751 11.8197 9.09147 10.3722 10.6934 10.3722C12.3078 10.3722 13.5944 11.8324 13.5692 13.5974C13.5692 15.3751 12.2952 16.8227 10.6934 16.8227ZM21.3263 16.8227C19.7497 16.8227 18.4505 15.3751 18.4505 13.5974C18.4505 11.8197 19.7244 10.3722 21.3263 10.3722C22.9408 10.3722 24.2274 11.8324 24.2022 13.5974C24.2022 15.3751 22.9408 16.8227 21.3263 16.8227Z" fill="white"/>
</g>
<defs>
<clipPath id="clip0_7_57">
<rect width="32" height="24.7887" fill="white"/>
</clipPath>
</defs>
</svg>
